<svg xmlns="http://www.w3.org/2000/svg">
    <symbol id="message" viewBox="0 0 20 20" fill="none">
        <path stroke="var(--i-color1, #333)" d="M1.74902 5.29113L8.48447 10.1017C9.02989 10.4912 9.3026 10.686 9.59923 10.7614C9.86126 10.8281 10.1353 10.8281 10.3974 10.7614C10.694 10.686 10.9667 10.4912 11.5121 10.1017L18.2476 5.29113M5.70866 16.2329H14.2879C15.6739 16.2329 16.3669 16.2329 16.8962 15.9577C17.362 15.7156 17.7405 15.3293 17.9778 14.8542C18.2476 14.3141 18.2476 13.607 18.2476 12.1929V6.80614C18.2476 5.392 18.2476 4.68492 17.9778 4.14479C17.7405 3.66969 17.362 3.28341 16.8962 3.04132C16.3669 2.76611 15.6739 2.76611 14.2879 2.76611H5.70866C4.32266 2.76611 3.62966 2.76611 3.10028 3.04132C2.63462 3.28341 2.25603 3.66969 2.01876 4.14479C1.74902 4.68492 1.74902 5.392 1.74902 6.80614V12.1929C1.74902 13.607 1.74902 14.3141 2.01876 14.8542C2.25603 15.3293 2.63462 15.7156 3.10028 15.9577C3.62966 16.2329 4.32266 16.2329 5.70866 16.2329Z" stroke-width="1.5" stroke-linecap="round" stroke-linejoin="round" />
    </symbol>
</svg>