<svg xmlns="http://www.w3.org/2000/svg" xmlns:xlink="http://www.w3.org/1999/xlink"><symbol fill="none" viewBox="0 0 22 22" id="i-arrow"><path fill="var(--i-color1, #000)" d="M5.12 8.63l1.296-1.297 4.852 4.774 4.852-4.774 1.296 1.297-6.148 6.148L5.12 8.63z"/></symbol><symbol fill="none" viewBox="0 0 17 16" id="i-bookmark"><path fill="var(--i-color1, #000)" d="M9.617 3.333H4.284c-.735 0-1.333.598-1.333 1.334v10.666l4-2.4 4 2.4V4.667c0-.736-.598-1.334-1.334-1.334zm0 9.645l-2.666-1.6-2.667 1.6V4.667h5.333v8.311z"/><path fill="var(--i-color1, #000)" d="M12.284.667H6.951c-.735 0-1.333.598-1.333 1.333h5.333c.735 0 1.333.598 1.333 1.333v6.962l1.334 1.66V2c0-.735-.598-1.333-1.334-1.333z"/></symbol><symbol viewBox="0 0 512 512" id="i-flag-br"><path d="M503.172 423.724H8.828A8.829 8.829 0 010 414.896V97.103a8.829 8.829 0 018.828-8.828h494.345a8.829 8.829 0 018.828 8.828v317.793a8.83 8.83 0 01-8.829 8.828z" fill="#73af00"/><path d="M251.41 135.208L65.354 248.459c-5.651 3.439-5.651 11.641 0 15.081L251.41 376.792a8.828 8.828 0 009.18 0l186.057-113.251c5.651-3.439 5.651-11.641 0-15.081L260.59 135.208a8.828 8.828 0 00-9.18 0z" fill="#ffe15a"/><circle cx="256" cy="256" r="70.621" fill="#41479b"/><path d="M195.401 219.873a70.117 70.117 0 00-7.605 18.077c39.149-2.946 97.062 8.006 133.922 43.773a70.114 70.114 0 004.59-19.522c-38.061-32.033-90.68-43.424-130.907-42.328zm63.524 60.226l1.88 5.638 5.943.046c.769.006 1.088.988.47 1.445l-4.781 3.531 1.793 5.666c.232.734-.604 1.341-1.229.893l-4.835-3.456-4.835 3.456c-.626.448-1.461-.159-1.229-.893l1.793-5.666-4.781-3.531c-.619-.457-.3-1.439.469-1.445l5.943-.046 1.88-5.638c.243-.73 1.275-.73 1.519 0zm23.099 14.585l.809 2.426 2.558.02a.345.345 0 01.202.622l-2.058 1.519.771 2.439a.344.344 0 01-.529.384l-2.081-1.487-2.081 1.487a.344.344 0 01-.529-.384l.771-2.439-2.058-1.519a.345.345 0 01.202-.622l2.558-.02.809-2.426a.346.346 0 01.656 0zm-33.086-25.295l.809 2.426 2.558.02a.345.345 0 01.202.622l-2.058 1.519.771 2.439a.344.344 0 01-.529.384l-2.081-1.487-2.081 1.487a.344.344 0 01-.529-.384l.771-2.439-2.058-1.519a.345.345 0 01.202-.622l2.558-.02.809-2.426a.346.346 0 01.656 0zm-44.808-2.942l.809 2.426 2.558.02a.345.345 0 01.202.622l-2.058 1.519.771 2.439a.344.344 0 01-.529.384l-2.081-1.487-2.081 1.487a.344.344 0 01-.529-.384l.771-2.439-2.058-1.519a.345.345 0 01.202-.622l2.558-.02.809-2.426c.107-.314.551-.314.656 0zm37.484 27.399l.809 2.426 2.558.02a.345.345 0 01.202.622l-2.058 1.519.771 2.439a.344.344 0 01-.529.384l-2.081-1.487-2.081 1.487a.344.344 0 01-.529-.384l.771-2.439-2.058-1.519a.345.345 0 01.202-.622l2.558-.02.809-2.426c.107-.313.552-.313.656 0zm-20.624-29.092l.662 1.984 2.092.017c.27.002.383.348.166.509l-1.683 1.242.631 1.994a.282.282 0 01-.433.314l-1.702-1.216-1.702 1.216a.282.282 0 01-.433-.314l.631-1.994-1.683-1.242a.282.282 0 01.166-.509l2.092-.017.662-1.984a.281.281 0 01.534 0zm62.829-40.961l.828 2.482 2.616.02a.352.352 0 01.206.636l-2.104 1.554.789 2.495a.352.352 0 01-.541.393l-2.129-1.522-2.129 1.522a.352.352 0 01-.541-.393l.789-2.495-2.104-1.554a.352.352 0 01.206-.636l2.616-.02.828-2.482a.353.353 0 01.67 0zm-76.807 28.823l.662 1.984 2.092.017c.27.002.383.348.166.509l-1.683 1.242.631 1.994a.282.282 0 01-.433.314l-1.702-1.216-1.702 1.216a.282.282 0 01-.433-.314l.631-1.994-1.683-1.242a.282.282 0 01.166-.509l2.092-.017.662-1.984a.281.281 0 01.534 0zm10.1 27.964l1.002 3.006 3.168.024c.41.003.58.526.25.77l-2.549 1.882.956 3.02a.427.427 0 01-.655.476l-2.578-1.842-2.578 1.842a.427.427 0 01-.655-.476l.956-3.02-2.549-1.882a.427.427 0 01.25-.77l3.168-.024 1.002-3.006c.133-.388.683-.388.812 0zm77.791 14.734l.63 1.891 1.993.015a.268.268 0 01.158.484l-1.603 1.184.601 1.9c.078.246-.202.449-.413.299l-1.621-1.159-1.622 1.159a.269.269 0 01-.413-.299l.601-1.9-1.603-1.184a.268.268 0 01.158-.484l1.993-.015.63-1.891c.083-.245.43-.245.511 0zm6.974-14.43l.809 2.426 2.558.02a.345.345 0 01.202.622l-2.058 1.519.771 2.439a.344.344 0 01-.529.384l-2.081-1.487-2.081 1.487a.344.344 0 01-.529-.384l.771-2.439-2.058-1.519a.345.345 0 01.202-.622l2.558-.02.809-2.426a.346.346 0 01.656 0z" fill="#f5f5f5"/></symbol><symbol viewBox="0 0 512 512" id="i-flag-by"><path d="M38.345 423.724h435.31c21.177 0 38.345-17.167 38.345-38.345v-49.931H0v49.931c0 21.178 17.167 38.345 38.345 38.345z" fill="#73af00"/><path d="M512 126.621c0-21.177-17.167-38.345-38.345-38.345H38.345C17.167 88.276 0 105.443 0 126.621v208.828h512V126.621z" fill="#ff4b55"/><path d="M38.345 423.724h32.276V88.276H38.345C17.167 88.276 0 105.443 0 126.621V385.38c0 21.177 17.167 38.344 38.345 38.344z" fill="#f5f5f5"/><g fill="#ff4b55"><path d="M58.681 319.72h3.108v8.749h-3.108zM8.839 145.48h3.122v8.75H8.839zM8.833 171.797h1.568v4.438h1.554v4.376h4.66v-4.376h1.569v-4.438h1.523v-5.834h-1.523v-4.438h-1.569v-4.311h-4.66v4.311h-1.554v4.438H8.833v5.834zm3.122-4.375h1.539v-2.916h1.6v2.916h1.521v2.916h-1.521v2.98h-1.6v-2.98h-1.539v-2.916zM8.839 183.53h3.122v8.812H8.839zM33.751 145.48h3.123v8.75h-3.123zM29.09 157.214v4.311h-1.554v4.438h-1.569v5.834h1.569v4.438h1.554v4.376h4.66v-4.376h3.123v4.376h4.676v-4.376h1.585v-4.438h1.523v-5.834h-1.523v-4.438h-1.585v-4.311h-4.676v4.311H33.75v-4.311h-4.66zm7.784 10.208h1.569v-2.916h1.569v2.916h1.537v2.916h-1.537v2.98h-1.569v-2.98h-1.569v-2.916zm-3.123 2.917h-1.537v2.98h-1.586v-2.98h-1.537v-2.916h1.537v-2.916h1.586v2.916h1.537v2.916zM8.839 286.06h3.122v5.832H8.839zM8.839 220.17h3.122v5.832H8.839zM33.751 183.53h3.123v8.812h-3.123zM8.839 319.72h3.122v8.749H8.839zM11.955 256.063V251.626H8.833v8.812h3.122zM8.839 400.31h3.122v8.75H8.839zM58.681 400.31h3.108v8.75h-3.108zM8.839 357.83h3.122v8.75H8.839zM33.751 400.31h3.123v8.75h-3.123zM53.961 157.151v4.374h-1.537v4.438h-1.569v5.834h1.569v4.374h1.537v4.376h4.693v-4.376h1.554v-4.374h1.537v-5.834h-1.537v-4.438h-1.554v-4.374h-4.693zm4.693 13.188h-1.569v2.915h-1.57v-2.915h-1.554v-2.98h1.554v-2.854h1.569v2.854h1.569l.001 2.98zM58.681 103h3.108v8.75h-3.108zM8.839 103h3.122v8.75H8.839zM58.681 183.53h3.108v8.812h-3.108zM58.681 145.48h3.108v8.75h-3.108zM33.751 103h3.123v8.75h-3.123zM21.308 378.32h3.091v7.292h-3.091zM29.09 256.063V251.626h-3.123v8.812h3.123z"/><path d="M46.241 97.103v7.357h-3.107v7.292h-3.122v7.354h-3.139v7.292H33.75v-7.292h-3.123v-7.354h-3.091v-7.292H24.43v-7.357h-3.123v7.357h-3.123v7.292h-3.091v7.354h-3.139v7.292H8.833v7.357h3.122v7.292h3.139v7.354h3.091v7.354h3.123v7.292h3.091v-7.292h3.139v-7.354h3.091v-7.354h3.123v-7.292h3.123v7.292h3.139v7.354h3.091v7.354h3.138v7.292h3.108v-7.292h3.106v-7.354h3.122v-7.354h3.106v-7.292h3.108v-7.357h-3.092v-7.292h-3.123v-7.354h-3.122v-7.292H49.35v-7.357h-3.109zm-15.614 36.65h-3.091v7.292h-3.139v7.354h-3.09v-7.354h-3.123v-7.292h-3.091v-7.357h3.091v-7.292h3.123v-7.354h3.091v7.354h3.139v7.292h3.091l-.001 7.357zm21.83-14.647v7.292h3.122v7.357h-3.122v7.292h-3.106v7.354h-3.108v-7.354h-3.107v-7.292h-3.122v-7.357h3.122v-7.292h3.107v-7.354h3.108v7.354h3.106zM33.751 240.65h3.123v7.292h-3.123zM33.751 264.11h3.123v7.292h-3.123zM41.55 256v4.438h3.107v-8.812H41.55zM43.135 400.312v7.292h3.107v7.293h3.108v-7.293h3.106v-7.292h3.122v-7.354h3.123v-7.354h3.092v-7.292h-3.108v-7.357h-3.106v-7.292h-3.122v-7.354h-3.106v-7.292h-3.108v7.292h-3.138v7.354h-3.091v7.292h-3.139v7.357h-3.123v-7.357h-3.123v-7.292h-3.091v-7.354h-3.139v-7.292h-3.091v7.292h-3.123v7.354h-3.091v7.292h-3.139v7.357H8.833v7.292h3.122v7.354h3.139v7.354h3.091v7.292h3.123v7.293h3.123v-7.293h3.107v-7.292h3.091v-7.354h3.123v-7.354h3.123v7.354h3.139v7.354h3.121zm-12.508-14.709h-3.091v7.354h-3.139v7.354h-3.09v-7.354h-3.123v-7.354h-3.091v-7.292h3.091v-7.357h3.123v-7.292h3.091v7.292h3.139v7.357h3.091l-.001 7.292zm9.386-7.291h3.122v-7.357h3.107v-7.292h3.108v7.292h3.106v7.357h3.122v7.292h-3.122v7.354H49.35v7.354h-3.108v-7.354h-3.107v-7.354h-3.122v-7.292z"/><path d="M38.443 249.407h-1.569v2.219h-3.123v-2.219h-1.537v-2.918H29.09v4.376h1.537v2.219h1.587V258.916h-1.587v2.219H29.09v4.376h3.124v-2.916h1.537v-2.157h3.123v2.157h1.569v2.916h3.107v-4.376h-1.537v-2.219h-1.57V253.084h1.57v-2.219h1.537v-4.376h-3.107zM46.24 126.4h3.108v7.357H46.24zM46.24 378.32h3.108v7.292H46.24zM16.615 354.85v-4.374h1.569v-4.374h1.523v-5.897h-1.523v-4.374h-1.569v-4.376h-4.66v4.376h-1.554v4.374H8.833v5.897h1.568v4.374h1.554v4.374h4.66zm-4.66-13.189h1.569v-2.915h1.569v2.915h1.521v2.98h-1.521v2.916h-1.569v-2.916h-1.569v-2.98zM21.308 126.4h3.091v7.357h-3.091zM58.681 357.83h3.108v8.75h-3.108zM41.55 354.85v-4.374h1.585v-4.374h1.523v-5.897h-1.523v-4.374H41.55v-4.376h-4.676v4.376h-3.123v-4.376h-4.66v4.376h-1.554v4.374h-1.569v5.897h1.569v4.374h1.554v4.374h4.66v-4.374h3.123v4.374h4.676zm-7.799-10.209h-1.537v2.916h-1.586v-2.916h-1.537v-2.98h1.537v-2.915h1.586v2.915h1.537v2.98zm3.123-2.98h1.569v-2.915h1.569v2.915h1.537v2.98h-1.537v2.916h-1.569v-2.916h-1.569v-2.98zM33.751 357.83h3.123v8.75h-3.123zM33.751 319.72h3.123v8.749h-3.123zM58.681 286.06h3.108v5.832h-3.108zM58.654 354.85v-4.374h1.554v-4.374h1.537v-5.834h-1.537v-4.438h-1.554v-4.313h-4.693v4.313h-1.537v4.438h-1.569v5.834h1.569v4.374h1.537v4.374h4.693zm-4.693-13.124h1.554v-2.916h1.569v2.916h1.569v2.915h-1.569v2.98h-1.569v-2.98h-1.554v-2.915zM58.685 256v4.438h3.108v-8.812h-3.108zM58.681 220.17h3.108v5.832h-3.108z"/><path d="M61.793 204.008h-3.108v-7.292h-3.106v-7.357h-3.122v-7.292h-3.106v-7.354h-3.108v7.354h-3.138v7.292h-3.091v7.357h-3.139v7.291h-3.123v-7.292h-3.123v-7.357h-3.091v-7.292h-3.139v-7.354h-3.091v7.354h-3.123v7.292h-3.123v7.357h-3.107v7.291H8.833v7.354h3.122v7.354h3.107v7.292h3.123v7.293h3.123v-7.293h3.091v-7.292h3.139v-7.354h-3.139v-8.814h3.139v5.897h3.091v11.731h1.586v7.228l-4.676.063v5.834H24.4v4.374h-3.091v7.354h-3.123v-7.354h-3.123v-4.374h-3.107v-4.376H8.833v13.188h3.122v5.897h3.107v5.073h3.123v5.836h-3.123v5.199h-3.107v5.834H8.833v13.188h3.122v-4.439h3.107v-4.374h3.123v-7.292h3.123v7.292h3.091v4.374h3.139v5.897l4.676.063v7.228h-1.586v11.731h-3.091V309.515h-3.139v-8.877h3.139v-7.292h-3.139v-7.292h-3.091v-7.357h-3.123v7.357h-3.123v7.292h-3.107v7.292H8.833v7.354h3.122v7.292h3.139v7.357h3.091v7.354h3.123v7.292h3.091v-7.292h3.139v-7.354h3.091v-7.357h3.123v-7.292h3.123v7.292h3.139v7.357h3.122v7.354h3.107v7.292h3.108v-7.292h3.106v-7.354h3.122v-7.357h3.106v-7.292h3.108v-7.354h-3.108v-7.292h-3.106v-7.292h-3.122v-7.357h-3.106v7.357h-3.108v7.292h-3.138v7.292h3.138v8.877h-3.138V303.618h-3.091v-11.731H38.445v-7.292h4.691v-5.897h3.107v-4.374h3.108v-7.292h3.106v7.292h3.122v4.374h3.123v4.439h3.092v-13.188h-3.092v-5.834h-3.123v-5.199h-3.122v-5.832h3.122v-5.073h3.123v-5.897h3.092v-13.188h-3.092v4.376h-3.123v4.374h-3.122v7.354h-3.106v-7.354h-3.108v-4.374h-3.107v-5.834h-4.692v-7.292H40.013v-11.731h3.091v-5.897h3.138v8.813h-3.138v7.354h3.138v7.292h3.108v7.293h3.106v-7.293h3.122v-7.292h3.106v-7.354h3.108l.001-7.353zm-18.658 38.105v5.896h3.107v5.073h3.108v5.834h-3.108v5.199h-3.107v5.832h-4.691v6.912h-1.569v3.297h-3.123v-3.297h-1.537v-6.912h-4.676v-5.834H24.4v-5.199h-3.092v-5.835h3.091v-5.073h3.139v-5.897h4.676v-6.91h1.537v-3.362h3.123v3.297h1.569v6.975h4.692v.004z"/></g></symbol><symbol viewBox="0 0 512 512" id="i-flag-es"><path d="M8.828 423.724h494.345a8.829 8.829 0 008.828-8.828V97.103a8.829 8.829 0 00-8.828-8.828H8.828A8.83 8.83 0 000 97.103v317.793a8.828 8.828 0 008.828 8.828z" fill="#c8414b"/><path fill="#ffd250" d="M0 158.897h512v194.207H0z"/><path d="M216.276 256l7.485-33.681c.69-3.102-1.671-6.044-4.849-6.044h-5.272c-3.177 0-5.537 2.942-4.849 6.044L216.276 256z" fill="#c8414b"/><path fill="#f5f5f5" d="M207.448 238.345h17.655v75.034h-17.655z"/><path fill="#fab446" d="M203.034 229.517h26.483v8.828h-26.483z"/><path d="M185.379 256h44.138v8.828h-44.138zm44.138 35.31l-26.483-8.827v-8.828l26.483 8.828zM83.862 256l7.485-33.681c.69-3.102-1.671-6.044-4.849-6.044h-5.272c-3.177 0-5.537 2.942-4.849 6.044L83.862 256z" fill="#c8414b"/><path d="M114.759 229.517a8.829 8.829 0 00-8.828 8.828v57.379c0 10.725 10.01 30.897 44.138 30.897s44.138-20.171 44.138-30.897v-57.379a8.829 8.829 0 00-8.828-8.828h-70.62z" fill="#f5f5f5"/><path d="M150.069 273.655h-44.138v-35.31a8.829 8.829 0 018.828-8.828h35.31v44.138zm0 0h44.138v22.069c0 12.189-9.88 22.069-22.069 22.069-12.189 0-22.069-9.88-22.069-22.069v-22.069z" fill="#c8414b"/><path d="M105.931 273.655h44.138v22.069c0 12.189-9.88 22.069-22.069 22.069-12.189 0-22.069-9.88-22.069-22.069v-22.069z" fill="#fab446"/><path d="M141.241 313.28v-39.625h-8.828v43.693c3.284-.666 6.251-2.12 8.828-4.068zm-17.655 4.068v-43.693h-8.828v39.625c2.578 1.948 5.545 3.402 8.828 4.068z" fill="#c8414b"/><path fill="#ffb441" d="M114.759 256h26.483v8.828h-26.483z"/><g fill="#fab446"><path d="M114.759 238.345h26.483v8.828h-26.483z"/><path d="M119.172 243.586h17.655v15.992h-17.655z"/></g><path fill="#f5f5f5" d="M75.034 238.345h17.655v75.034H75.034z"/><path d="M70.621 308.966h26.483v8.828H70.621zm0-79.449h26.483v8.828H70.621z" fill="#fab446"/><path fill="#5064aa" d="M66.207 317.793h35.31v8.828h-35.31z"/><path fill="#fab446" d="M207.448 308.966h26.483v8.828h-26.483z"/><path fill="#5064aa" d="M198.621 317.793h35.31v8.828h-35.31z"/><path fill="#fab446" d="M123.586 220.69h52.966v8.828h-52.966z"/><path fill="#ffb441" d="M145.655 194.207h8.828v26.483h-8.828z"/><g fill="#f5f5f5"><path d="M141.241 207.448c-7.302 0-13.241-5.94-13.241-13.241 0-7.302 5.94-13.241 13.241-13.241 7.302 0 13.241 5.94 13.241 13.241.001 7.301-5.939 13.241-13.241 13.241zm0-17.655a4.417 4.417 0 00-4.414 4.414c0 2.435 1.978 4.414 4.414 4.414s4.414-1.978 4.414-4.414a4.417 4.417 0 00-4.414-4.414z"/><path d="M158.897 207.448c-7.302 0-13.241-5.94-13.241-13.241 0-7.302 5.94-13.241 13.241-13.241 7.302 0 13.241 5.94 13.241 13.241 0 7.301-5.94 13.241-13.241 13.241zm0-17.655a4.417 4.417 0 00-4.414 4.414 4.417 4.417 0 004.414 4.414 4.417 4.417 0 004.414-4.414 4.418 4.418 0 00-4.414-4.414z"/><path d="M176.552 216.276c-7.302 0-13.241-5.94-13.241-13.241 0-7.302 5.94-13.241 13.241-13.241 7.302 0 13.241 5.94 13.241 13.241 0 7.301-5.94 13.241-13.241 13.241zm0-17.655a4.417 4.417 0 00-4.414 4.414 4.417 4.417 0 004.414 4.414 4.417 4.417 0 004.414-4.414 4.417 4.417 0 00-4.414-4.414zm-52.966 17.655c-7.302 0-13.241-5.94-13.241-13.241 0-7.302 5.94-13.241 13.241-13.241 7.302 0 13.241 5.94 13.241 13.241.001 7.301-5.939 13.241-13.241 13.241zm0-17.655a4.417 4.417 0 00-4.414 4.414c0 2.435 1.978 4.414 4.414 4.414S128 205.47 128 203.034a4.416 4.416 0 00-4.414-4.413z"/></g><path d="M176.552 291.31v4.414a4.419 4.419 0 01-4.414 4.414 4.419 4.419 0 01-4.414-4.414v-4.414h8.828m8.827-8.827h-26.483v13.241c0 7.302 5.94 13.241 13.241 13.241 7.302 0 13.241-5.94 13.241-13.241v-13.241h.001z" fill="#fab446"/><path d="M172.138 264.828A8.829 8.829 0 01163.31 256v-8.828a8.829 8.829 0 0117.656 0V256a8.829 8.829 0 01-8.828 8.828z" fill="#ffa0d2"/><circle cx="150.069" cy="273.655" r="13.241" fill="#5064aa"/><path fill="#fab446" d="M145.655 176.552h8.828v26.483h-8.828z"/><path d="M123.586 220.69l-8.828-8.828 5.171-5.171a42.627 42.627 0 0160.28 0l5.171 5.171-8.828 8.828h-52.966z" fill="#c8414b"/><g fill="#ffd250"><circle cx="150.069" cy="211.862" r="4.414"/><circle cx="132.414" cy="211.862" r="4.414"/><circle cx="167.724" cy="211.862" r="4.414"/></g><path d="M70.621 256h44.138v8.828H70.621zm0 35.31l26.482-8.827v-8.828l-26.482 8.828z" fill="#c8414b"/></symbol><symbol fill="none" viewBox="0 0 16 16" id="i-flag-ru"><path d="M14.802 2.76H1.198C.536 2.76 0 3.295 0 3.957v2.295h16V3.957c0-.661-.537-1.198-1.198-1.198z" fill="#F5F5F5"/><path d="M0 12.043c0 .662.536 1.198 1.198 1.198h13.604c.662 0 1.198-.536 1.198-1.198V9.747H0v2.296z" fill="#FF4B55"/><path d="M16 6.253H0v3.494h16V6.253z" fill="#41479B"/></symbol><symbol viewBox="0 0 512 512" id="i-flag-ua"><path d="M0 385.379c0 21.177 17.167 38.345 38.345 38.345h435.31c21.177 0 38.345-17.167 38.345-38.345V256H0v129.379z" fill="#ffe15a"/><path d="M473.655 88.276H38.345C17.167 88.276 0 105.443 0 126.621V256h512V126.621c0-21.178-17.167-38.345-38.345-38.345z" fill="#4173cd"/></symbol><symbol fill="none" viewBox="0 0 17 16" id="i-forum"><g clip-path="url(#hmmclip0)" fill="var(--i-color1, #000)"><path d="M2.617 1.333h7.334A1.668 1.668 0 0111.617 3v4.668a1.667 1.667 0 01-1.666 1.666H5.744l-1.7 1.984a1.002 1.002 0 01-1.58-.079 1 1 0 01-.18-.57V9.299A1.668 1.668 0 01.951 7.667V3a1.668 1.668 0 011.666-1.666zM2.618 8h1v1.765L5.13 8H9.95a.335.335 0 00.334-.334V3.001a.335.335 0 00-.334-.334H2.618A.334.334 0 002.284 3v4.666A.334.334 0 002.618 8z"/><path d="M13.95 7.333h-2.666V6h2.668a1.668 1.668 0 011.665 1.666v3.668a1.667 1.667 0 01-1.333 1.632v.7a1.001 1.001 0 01-1.64.77L10.922 13H7.95a1.668 1.668 0 01-1.666-1.666V9h1.334v2.333a.335.335 0 00.333.334h3.454l1.546 1.288v-1.288h1s-.001 0 0 0a.335.335 0 00.333-.334V7.667a.335.335 0 00-.334-.334zM4.284 4.667h1.333V6H4.284zM6.951 4.667h1.333V6H6.951z"/></g><defs><clipPath id="hmmclip0"><path fill="#fff" d="M0 0h16v16H0z"/></clipPath></defs></symbol><symbol fill="none" viewBox="0 0 32 32" id="i-logo"><g clip-path="url(#iclip0)" fill="var(--i-color1, #ec314d)"><path d="M14.596 31.43L.57 17.358a1.955 1.955 0 010-2.758L14.596.568a1.953 1.953 0 012.758 0L31.381 14.6a1.955 1.955 0 010 2.758L17.354 31.43a1.953 1.953 0 01-2.757 0zm2.319-.44L30.94 16.96a1.328 1.328 0 000-1.88L16.915 1.01a1.324 1.324 0 00-1.879 0L.97 15.04a1.33 1.33 0 000 1.88l14.028 14.03c.559.56 1.398.56 1.917.04z"/><path d="M15.116 28.792L9.84 23.555l.16-.08 8.312-12.992c.56-.839-.08-1.958-1.079-1.958H9.84l5.276-5.317c.519-.52 1.398-.52 1.958 0l5.315 5.317-.12.04-8.312 13.031c-.56.84.08 1.96 1.078 1.96h7.234l-5.235 5.236c-.52.52-1.399.52-1.918 0zm-7.074-7.036L3.286 16.96c-.519-.52-.519-1.399 0-1.959l3.957-3.957h7.633L8.042 21.756zm9.351-.759l6.794-10.634 4.675 4.678c.52.52.52 1.399 0 1.958l-3.996 3.998h-7.473z"/></g><defs><clipPath id="iclip0"><path fill="#fff" d="M0 0h32v32H0z"/></clipPath></defs></symbol><symbol fill="none" viewBox="0 0 26 26" id="i-menu"><path fill="var(--i-color1, #000)" d="M4.333 7.583c0-.598.486-1.083 1.084-1.083h15.166a1.083 1.083 0 010 2.167H5.418a1.083 1.083 0 01-1.083-1.084zm0 5.417c0-.598.486-1.083 1.084-1.083h15.166a1.083 1.083 0 110 2.166H5.418A1.083 1.083 0 014.334 13zm0 5.417c0-.599.486-1.084 1.084-1.084h15.166a1.083 1.083 0 010 2.167H5.418a1.083 1.083 0 01-1.083-1.083z"/></symbol><symbol fill="none" viewBox="0 0 26 26" id="i-menu-close"><path fill="var(--i-color1, #000)" d="M6.871 6.872a1.083 1.083 0 011.532 0l10.725 10.724a1.083 1.083 0 11-1.532 1.532L6.87 8.404a1.083 1.083 0 010-1.532z"/><path fill="var(--i-color1, #000)" d="M6.872 19.128a1.083 1.083 0 010-1.532L17.596 6.872a1.083 1.083 0 011.532 1.532L8.404 19.128a1.083 1.083 0 01-1.532 0z"/></symbol><symbol fill="none" viewBox="0 0 17 16" id="i-message"><path fill="var(--i-color1, #000)" d="M12.95 3.333H3.619c-.736 0-1.334.598-1.334 1.334V8h1.334V6l4.266 3.2a.667.667 0 00.8 0L12.951 6v6H7.618v1.333h5.333c.735 0 1.333-.598 1.333-1.333V4.667c0-.736-.598-1.334-1.333-1.334zm-4.666 4.5L4.062 4.667h8.445L8.284 7.833z"/><path fill="var(--i-color1, #000)" d="M3.618 8H2.284v4c0 .735.598 1.333 1.334 1.333h4V12h-4V8z"/></symbol><symbol fill="none" viewBox="0 0 17 16" id="i-promo"><path d="M8.375 1.36L9.55 3.203a.067.067 0 00.087.022l1.937-1.007a.067.067 0 01.097.056l.097 2.183c.002.035.028.063.062.063l2.183.097a.067.067 0 01.056.096l-1.006 1.938a.067.067 0 00.022.087l1.842 1.174c.04.026.04.084 0 .11l-1.842 1.175a.067.067 0 00-.022.086l1.007 1.938a.067.067 0 01-.057.097l-2.183.095c-.034.002-.062.028-.062.062l-.097 2.183a.067.067 0 01-.097.057l-1.937-1.007a.067.067 0 00-.087.022l-1.174 1.84a.066.066 0 01-.11 0L7.09 12.729a.067.067 0 00-.086-.022l-1.938 1.007a.067.067 0 01-.096-.057l-.097-2.183c-.002-.034-.028-.063-.062-.063l-2.183-.096a.067.067 0 01-.057-.097L3.578 9.28a.067.067 0 00-.022-.086L1.713 8.019a.066.066 0 010-.111l1.843-1.174a.067.067 0 00.022-.087L2.571 4.709a.067.067 0 01.057-.096l2.183-.097c.034-.002.062-.028.062-.063L4.97 2.27a.067.067 0 01.096-.056L7.004 3.22c.03.016.068.006.086-.022l1.175-1.843a.066.066 0 01.11.004z" stroke="var(--i-color1, #000)" stroke-width="1.33" stroke-miterlimit="10"/><path fill="var(--i-color1, #000)" d="M9.893 10.22c-.283.318-.692.505-1.227.563v.813h-.681v-.811c-.89-.093-1.444-.61-1.656-1.554l1.055-.275c.099.593.42.89.968.89.254 0 .447-.063.566-.188a.648.648 0 00.18-.461c0-.187-.06-.327-.18-.426-.12-.098-.389-.217-.803-.363a4.751 4.751 0 01-.877-.385 1.44 1.44 0 01-.513-.534 1.581 1.581 0 01-.197-.797c0-.398.117-.758.352-1.078.234-.317.603-.513 1.109-.584v-.628h.679v.628c.761.093 1.256.52 1.477 1.293l-.94.389c-.183-.528-.466-.79-.848-.79a.62.62 0 00-.463.178.585.585 0 00-.176.43c0 .17.057.302.168.395.114.093.353.203.722.342.403.146.72.286.949.418.23.131.413.312.55.544.136.232.204.5.204.81.004.473-.14.868-.418 1.182z"/></symbol></svg>